<svg width="24" height="24" viewBox="0 0 24 24" fill="none" xmlns="http://www.w3.org/2000/svg">
<path d="M10.9394 0.332738L0.332755 10.9393C0.0514503 11.2206 -0.106585 11.6022 -0.106585 12C-0.106585 12.3978 0.0514503 12.7794 0.332755 13.0607L10.9394 23.6673C11.2207 23.9486 11.6022 24.1066 12 24.1066C12.3978 24.1066 12.7794 23.9486 13.0607 23.6673L23.6673 13.0607C23.9486 12.7794 24.1066 12.3978 24.1066 12C24.1066 11.6022 23.9486 11.2206 23.6673 10.9393L13.0607 0.332738C12.7794 0.0514337 12.3978 -0.106602 12 -0.106601C11.6022 -0.1066 11.2207 0.0514334 10.9394 0.332738ZM22.6066 12L12 22.6066L1.39342 12L12 1.3934L22.6066 12ZM16.2427 11.2496C16.3412 11.2496 16.4388 11.269 16.5298 11.3067C16.6209 11.3444 16.7036 11.3997 16.7733 11.4694C16.843 11.5391 16.8982 11.6218 16.936 11.7128C16.9737 11.8039 16.9931 11.9015 16.9931 12C16.9931 12.0985 16.9737 12.1961 16.936 12.2872C16.8982 12.3782 16.843 12.4609 16.7733 12.5306C16.7036 12.6003 16.6209 12.6556 16.5298 12.6933C16.4388 12.731 16.3412 12.7504 16.2427 12.7504L7.75738 12.7504C7.55835 12.7504 7.36748 12.6714 7.22675 12.5306C7.08602 12.3899 7.00696 12.199 7.00696 12C7.00696 11.801 7.08602 11.6101 7.22675 11.4694C7.36748 11.3286 7.55835 11.2496 7.75738 11.2496L16.2427 11.2496Z" fill="#FF14B2"/>
</svg>
