<svg width="24" height="24" viewBox="0 0 24 24" fill="none" xmlns="http://www.w3.org/2000/svg">
<path d="M10.9394 0.332738L0.332755 10.9393C0.0514503 11.2206 -0.106585 11.6022 -0.106585 12C-0.106585 12.3978 0.0514503 12.7794 0.332755 13.0607L10.9394 23.6673C11.2207 23.9486 11.6022 24.1066 12 24.1066C12.3978 24.1066 12.7794 23.9486 13.0607 23.6673L23.6673 13.0607C23.9486 12.7794 24.1066 12.3978 24.1066 12C24.1066 11.6022 23.9486 11.2206 23.6673 10.9393L13.0607 0.332738C12.7794 0.0514337 12.3978 -0.106602 12 -0.106601C11.6022 -0.1066 11.2207 0.0514334 10.9394 0.332738ZM22.6066 12L12 22.6066L1.39342 12L12 1.3934L22.6066 12ZM12.7504 7.75736L12.7498 11.2502L16.2427 11.2496C16.3412 11.2496 16.4388 11.269 16.5298 11.3067C16.6209 11.3444 16.7036 11.3997 16.7733 11.4694C16.843 11.5391 16.8982 11.6218 16.936 11.7128C16.9737 11.8039 16.9931 11.9015 16.9931 12C16.9931 12.0985 16.9737 12.1961 16.936 12.2872C16.8982 12.3782 16.843 12.4609 16.7733 12.5306C16.7036 12.6003 16.6209 12.6556 16.5298 12.6933C16.4388 12.731 16.3412 12.7504 16.2427 12.7504L12.7498 12.7498L12.7504 16.2426C12.7504 16.3412 12.731 16.4388 12.6933 16.5298C12.6556 16.6209 12.6003 16.7036 12.5306 16.7733C12.461 16.8429 12.3782 16.8982 12.2872 16.9359C12.1961 16.9736 12.0986 16.9931 12 16.9931C11.9015 16.9931 11.8039 16.9736 11.7128 16.9359C11.6218 16.8982 11.5391 16.8429 11.4694 16.7733C11.3997 16.7036 11.3444 16.6209 11.3067 16.5298C11.269 16.4388 11.2496 16.3412 11.2496 16.2426L11.2503 12.7498L7.75738 12.7504C7.55835 12.7504 7.36748 12.6714 7.22675 12.5306C7.08602 12.3899 7.00696 12.199 7.00696 12C7.00696 11.801 7.08602 11.6101 7.22675 11.4694C7.36748 11.3286 7.55835 11.2496 7.75738 11.2496L11.2503 11.2502L11.2496 7.75736C11.2496 7.65881 11.269 7.56123 11.3067 7.47019C11.3444 7.37914 11.3997 7.29642 11.4694 7.22673C11.5391 7.15705 11.6218 7.10178 11.7128 7.06406C11.8039 7.02635 11.9015 7.00694 12 7.00694C12.0986 7.00694 12.1961 7.02635 12.2872 7.06406C12.3782 7.10178 12.461 7.15705 12.5306 7.22673C12.6003 7.29642 12.6556 7.37914 12.6933 7.47019C12.731 7.56123 12.7504 7.65881 12.7504 7.75736Z" fill="#FF14B2"/>
</svg>
